<svg width="29" height="48" viewBox="0 0 29 48" fill="none" xmlns="http://www.w3.org/2000/svg">
<path id="Combined Shape" fill-rule="evenodd" clip-rule="evenodd" d="M3.5191 8.342C2.35908 7.77 1.33307 7.308 0.357056 6.904C1.89708 2.744 4.12111 0 6.99914 0C9.80318 0 11.9872 2.602 13.5192 6.584C12.5352 7.006 11.5232 7.478 10.3752 8.062C9.19917 4.928 7.85916 3.512 6.99914 3.512C6.11513 3.512 4.71911 5.012 3.5191 8.342ZM6.99914 44.488C6.14113 44.488 4.79912 43.072 3.6231 39.938C2.46308 40.528 1.46107 40.994 0.479057 41.416C2.01308 45.398 4.19511 48 6.99914 48C9.87718 48 12.1012 45.256 13.6412 41.096C12.6712 40.694 11.6472 40.234 10.4792 39.658C9.27917 42.988 7.88316 44.488 6.99914 44.488ZM27.8534 29.644C27.8534 30.296 27.6954 30.91 27.4134 31.45C29.6154 35.35 29.1574 37.702 28.2354 39.05C27.5874 40.002 26.2174 41.134 23.3874 41.134C19.0453 41.134 13.3812 38.618 9.52918 36.544C10.6932 35.802 11.8872 34.99 12.8472 34.306C15.7213 35.732 20.1833 37.622 23.3874 37.622C24.4034 37.622 25.1574 37.408 25.4054 37.046C25.6634 36.668 25.6814 35.52 24.5754 33.472L24.0594 33.508C21.9633 33.508 20.2653 31.778 20.2653 29.644C20.2653 27.51 21.9633 25.78 24.0594 25.78C26.1554 25.78 27.8534 27.51 27.8534 29.644Z" fill="#FFC300"/>
</svg>
